# File created by Blade
# Date/Time:  Tue Sep 30 19:29:15 2014
#---------------------------------------------------------
:version 1.10
:name HOM
:units
  mass 1.0
  length 1.000000
  angle deg
:documentation
     Acclaim Skeleton File
:root
   axis xyz
   order TX TY TZ RX RY RZ
   position 0.000000 0.000000 0.000000
   orientation 0 0 0
:bonedata
   begin
      id 1
      name RightUpLeg_dum
      direction -1.000000 0.000000 0.000000
      length 3.766986
      axis 0.0 0.0 0.0 xyz
   end
   begin
      id 2
      name LeftUpLeg_dum
      direction 1.000000 0.000000 0.000000
      length 3.766986
      axis 0.0 0.0 0.0 xyz
   end
   begin
      id 3
      name Spine_dum
      direction 0.000000 1.000000 0.000000
      length 7.779697
      axis 0.0 0.0 0.0 xyz
   end
   begin
      id 4
      name RightUpLeg
      direction 0.000000 -1.000000 0.000000
      length 18.017682
      axis 0.0 0.0 0.0 xyz
      dof rx ry rz
   end
   begin
      id 5
      name RightLeg
      direction 0.000000 -1.000000 0.000000
      length 16.881075
      axis 0.0 0.0 0.0 xyz
      dof rx ry rz
   end
   begin
      id 6
      name RightFoot
      direction 0.000000 -0.258819 0.965926
      length 5.770812
      axis 15.0 0.0 0.0 xyz
      dof rx ry rz
   end
   begin
      id 7
      name RightToeBase
      direction 0.000000 0.000000 1.000000
      length 2.952750
      axis 0.0 0.0 0.0 xyz
      dof rx ry rz
   end
   begin
      id 8
      name LeftUpLeg
      direction 0.000000 -1.000000 0.000000
      length 18.017682
      axis 0.0 0.0 0.0 xyz
      dof rx ry rz
   end
   begin
      id 9
      name LeftLeg
      direction 0.000000 -1.000000 0.000000
      length 16.881075
      axis 0.0 0.0 0.0 xyz
      dof rx ry rz
   end
   begin
      id 10
      name LeftFoot
      direction 0.000000 -0.258819 0.965926
      length 5.770812
      axis 15.0 0.0 0.0 xyz
      dof rx ry rz
   end
   begin
      id 11
      name LeftToeBase
      direction 0.000000 0.000000 1.000000
      length 2.952750
      axis 0.0 0.0 0.0 xyz
      dof rx ry rz
   end
   begin
      id 12
      name Spine
      direction 0.000000 1.000000 0.000000
      length 0.000000
      axis 0.0 0.0 0.0 xyz
      dof rx ry rz
   end
   begin
      id 13
      name Spine_dum1
      direction 0.000000 1.000000 0.000000
      length 10.941760
      axis 0.0 0.0 0.0 xyz
   end
   begin
      id 14
      name Spine_dum2
      direction 0.000000 1.000000 0.000000
      length 10.941760
      axis 0.0 0.0 0.0 xyz
   end
   begin
      id 15
      name Spine_dum3
      direction 0.000000 1.000000 0.000000
      length 16.646042
      axis 0.0 0.0 0.0 xyz
   end
   begin
      id 16
      name RightShoulder
      direction -1.000000 0.000000 0.000000
      length 7.708937
      axis 0.0 0.0 90.0 xyz
      dof rx ry rz
   end
   begin
      id 17
      name RightArm
      direction -1.000000 0.000000 0.000000
      length 11.521345
      axis 0.0 0.0 90.0 xyz
      dof rx ry rz
   end
   begin
      id 18
      name RightForeArm
      direction -1.000000 0.000000 0.000000
      length 10.175898
      axis 0.0 0.0 90.0 xyz
      dof ry rz rx
   end
   begin
      id 19
      name RightHand
      direction -1.000000 0.000000 0.000000
      length 0.000000
      axis 0.0 0.0 90.0 xyz
      dof rx ry rz
   end
   begin
      id 20
      name RightHand_dum1
      direction -1.000000 0.000000 0.000000
      length 3.937000
      axis 0.0 0.0 90.0 xyz
   end
   begin
      id 21
      name RightHand_dum2
      direction 0.000000 0.000000 0.000000
      length 0.000000
      axis 0.0 0.0 90.0 xyz
   end
   begin
      id 22
      name RightHandThumb1
      direction 0.000000 0.000000 1.000000
      length 3.937000
      axis 0.0 0.0 90.0 xyz
      dof rx rz ry
   end
   begin
      id 23
      name LeftShoulder
      direction 1.000000 0.000000 0.000000
      length 7.708937
      axis 0.0 0.0 -90.0 xyz
      dof rx ry rz
   end
   begin
      id 24
      name LeftArm
      direction 1.000000 0.000000 0.000000
      length 11.521345
      axis 0.0 0.0 -90.0 xyz
      dof rx ry rz
   end
   begin
      id 25
      name LeftForeArm
      direction 1.000000 0.000000 0.000000
      length 10.175898
      axis 0.0 0.0 -90.0 xyz
      dof ry rz rx
   end
   begin
      id 26
      name LeftHand
      direction 1.000000 0.000000 0.000000
      length 0.000000
      axis 0.0 0.0 -90.0 xyz
      dof rx ry rz
   end
   begin
      id 27
      name LeftHand_dum1
      direction 1.000000 0.000000 0.000000
      length 3.937000
      axis 0.0 0.0 -90.0 xyz
   end
   begin
      id 28
      name LeftHand_dum2
      direction 0.000000 0.000000 0.000000
      length 0.000000
      axis 0.0 0.0 -90.0 xyz
   end
   begin
      id 29
      name LeftHandThumb1
      direction 0.000000 0.000000 1.000000
      length 3.937000
      axis 0.0 0.0 -90.0 xyz
      dof rx rz ry
   end
   begin
      id 30
      name Head
      direction 0.000000 1.000000 0.000000
      length 4.527550
      axis 0.0 0.0 0.0 xyz
      dof rx ry rz
   end
:hierarchy
   begin
      root RightUpLeg_dum LeftUpLeg_dum Spine_dum
      RightUpLeg_dum RightUpLeg
      LeftUpLeg_dum LeftUpLeg
      Spine_dum Spine
      RightUpLeg RightLeg
      RightLeg RightFoot
      RightFoot RightToeBase
      LeftUpLeg LeftLeg
      LeftLeg LeftFoot
      LeftFoot LeftToeBase
      Spine Spine_dum1 Spine_dum2 Spine_dum3
      Spine_dum1 RightShoulder
      Spine_dum2 LeftShoulder
      Spine_dum3 Head
      RightShoulder RightArm
      RightArm RightForeArm
      RightForeArm RightHand
      RightHand RightHand_dum1 RightHand_dum2
      RightHand_dum2 RightHandThumb1
      LeftShoulder LeftArm
      LeftArm LeftForeArm
      LeftForeArm LeftHand
      LeftHand LeftHand_dum1 LeftHand_dum2
      LeftHand_dum2 LeftHandThumb1
   end

# File created by Blade
# Date/Time:  Mon Sep 22 16:45:27 2014
# Frame Rate: 120.000 fps
#------------------------------------------------------
:FULLY-SPECIFIED
:DEGREES
405
root 4.229882 36.929111 2.434022 -43.262072 -10.096146 17.349613
RightUpLeg 33.282394 2.162604 -14.294489
RightLeg 28.597200 -0.000000 -0.000000
RightFoot -28.112080 -5.601273 9.577087
RightToeBase 7.652453 -0.000000 -0.000000
LeftUpLeg -81.332136 -7.089083 -24.658686
LeftLeg 127.061194 -0.000000 -0.000000
LeftFoot 11.287566 3.378676 -31.917217
LeftToeBase 4.389462 -0.000000 -0.000000
Spine 47.000900 16.478159 2.951842
RightShoulder 11.010162 -6.690965 -28.123189
RightArm 42.248339 16.089050 42.762921
RightForeArm -4.731654 -0.000000 65.248474
RightHand -0.709707 -0.000000 -6.768782
RightHandThumb1 -24.326973 -0.000000 -32.862282
LeftShoulder -26.522171 33.220852 -16.637039
LeftArm 32.898177 -7.703658 -69.459109
LeftForeArm 38.770808 -0.000000 15.184793
LeftHand -17.568012 0.000000 -9.689463
LeftHandThumb1 -26.253704 0.000000 33.147579
Head 0.474122 2.081152 -10.754276
406
root 4.221822 36.926361 2.442702 -43.325353 -10.601610 17.292636
RightUpLeg 33.200605 2.249962 -14.165832
RightLeg 28.641382 -0.000000 -0.000000
RightFoot -28.090225 -5.201219 9.586720
RightToeBase 7.991749 -0.000000 -0.000000
LeftUpLeg -81.292753 -7.194343 -24.538907
LeftLeg 127.040655 -0.000000 -0.000000
LeftFoot 11.664871 3.379052 -31.956393
LeftToeBase 4.353901 -0.000000 -0.000000
Spine 47.120650 16.718642 3.342978
RightShoulder 11.013206 -6.770874 -28.181946
RightArm 42.457219 16.178485 42.452173
RightForeArm -4.289283 -0.000000 64.828836
RightHand -0.510443 0.000000 -6.525934
RightHandThumb1 -24.326973 -0.000000 -32.862282
LeftShoulder -26.892354 33.442435 -16.804156
LeftArm 32.301042 -8.569423 -70.453551
LeftForeArm 39.342303 0.000000 14.515796
LeftHand -18.413516 -0.000000 -9.221484
LeftHandThumb1 -26.253704 0.000000 33.147579
Head 0.399060 2.157308 -10.770326
407
root 4.207842 36.927490 2.447933 -43.395577 -11.006754 17.218622
RightUpLeg 33.197629 2.295645 -14.044172
RightLeg 28.613766 -0.000000 -0.000000
RightFoot -28.079860 -4.774342 9.713902
RightToeBase 8.368475 -0.000000 -0.000000
LeftUpLeg -81.186831 -7.325417 -24.443715
LeftLeg 126.982140 -0.000000 -0.000000
LeftFoot 11.977806 3.366213 -32.092874
LeftToeBase 4.429967 -0.000000 -0.000000
Spine 47.260431 16.893683 3.626869
RightShoulder 11.016742 -6.692181 -28.202301
RightArm 42.538744 16.144868 42.184646
RightForeArm -4.049456 -0.000000 64.494284
RightHand -0.694695 -0.000000 -6.618493
RightHandThumb1 -24.326973 -0.000000 -32.862282
LeftShoulder -27.243753 33.644418 -16.907627
LeftArm 31.724039 -9.383946 -71.391070
LeftForeArm 39.830440 0.000000 13.870487
LeftHand -19.146732 -0.000000 -8.739428
LeftHandThumb1 -26.253704 0.000000 33.147579
Head 0.282695 2.186703 -10.752970
408
root 4.202766 36.925320 2.457017 -43.428679 -11.467988 17.190692
RightUpLeg 33.091054 2.294639 -14.034448
RightLeg 28.646353 -0.000000 -0.000000
RightFoot -28.046612 -4.353606 9.629400
RightToeBase 8.552721 -0.000000 -0.000000
LeftUpLeg -81.155773 -7.428134 -24.341240
LeftLeg 126.936736 -0.000000 -0.000000
LeftFoot 12.132364 3.413650 -32.318400
LeftToeBase 4.641127 -0.000000 -0.000000
Spine 47.319540 17.133415 3.905417
RightShoulder 11.030512 -6.739637 -28.205118
RightArm 42.697757 16.173924 41.870583
RightForeArm -3.892907 0.000000 64.181918
RightHand -0.622165 -0.000000 -6.342440
RightHandThumb1 -24.326973 -0.000000 -32.862282
LeftShoulder -27.633464 33.882785 -17.025203
LeftArm 31.151783 -10.125427 -72.305887
LeftForeArm 40.308385 -0.000000 13.331448
LeftHand -19.873630 -0.000000 -8.336266
LeftHandThumb1 -26.253704 0.000000 33.147579
Head 0.208715 1.958796 -10.827612
409
root 4.196342 36.925651 2.463792 -43.466874 -11.842642 17.139679
RightUpLeg 33.060801 2.328620 -13.953246
RightLeg 28.605843 -0.000000 -0.000000
RightFoot -27.980814 -4.060344 9.562917
RightToeBase 8.618376 -0.000000 -0.000000
LeftUpLeg -81.090133 -7.511860 -24.303250
LeftLeg 126.859938 -0.000000 -0.000000
LeftFoot 12.241419 3.488362 -32.356381
LeftToeBase 4.810232 -0.000000 -0.000000
Spine 47.396388 17.334855 4.142879
RightShoulder 11.035471 -6.732322 -28.170828
RightArm 42.774205 16.158852 41.545430
RightForeArm -3.687419 -0.000000 63.904262
RightHand -0.711517 -0.000000 -6.344802
RightHandThumb1 -24.326973 -0.000000 -32.862282
LeftShoulder -28.004344 34.143205 -17.111725
LeftArm 30.678204 -10.768549 -73.147735
LeftForeArm 40.626255 -0.000000 12.770971
LeftHand -20.526789 0.000000 -7.944726
LeftHandThumb1 -26.253704 0.000000 33.147579
Head 0.168878 1.735448 -10.864481
410
root 4.180637 36.922941 2.461861 -43.478113 -12.274338 17.009038
RightUpLeg 33.013661 2.392155 -13.701523
RightLeg 28.562939 -0.000000 -0.000000
RightFoot -27.896492 -3.839631 9.537083
RightToeBase 8.674639 -0.000000 -0.000000
LeftUpLeg -81.053309 -7.550512 -24.155887
LeftLeg 126.795545 -0.000000 -0.000000
LeftFoot 12.254911 3.564051 -32.251949
LeftToeBase 4.824811 -0.000000 -0.000000
Spine 47.504068 17.471553 4.514340
RightShoulder 11.034663 -6.692627 -28.246389
RightArm 42.862994 16.130161 41.335290
RightForeArm -3.565308 -0.000000 63.688951
RightHand -0.734182 -0.000000 -6.269862
RightHandThumb1 -24.326973 -0.000000 -32.862282
LeftShoulder -28.352481 34.393321 -17.279229
LeftArm 30.218678 -11.224892 -73.795932
LeftForeArm 40.815796 0.000000 12.247375
LeftHand -21.088050 -0.000000 -7.561378
LeftHandThumb1 -26.253704 0.000000 33.147579
Head 0.073171 2.279862 -10.709013
411
root 4.170290 36.921353 2.462267 -43.471751 -12.632960 16.926725
RightUpLeg 32.961419 2.428409 -13.552726
RightLeg 28.505740 -0.000000 -0.000000
RightFoot -27.828820 -3.616418 9.451316
RightToeBase 8.728403 -0.000000 -0.000000
LeftUpLeg -81.016765 -7.597714 -24.079202
LeftLeg 126.706436 -0.000000 -0.000000
LeftFoot 12.143947 3.640678 -32.300686
LeftToeBase 4.996781 -0.000000 -0.000000
Spine 47.555652 17.631313 4.746451
RightShoulder 11.031062 -6.707898 -28.234794
RightArm 42.964648 16.123571 41.093625
RightForeArm -3.440699 0.000000 63.477456
RightHand -0.716785 -0.000000 -6.288666
RightHandThumb1 -24.326973 -0.000000 -32.862282
LeftShoulder -28.693824 34.670524 -17.395446
LeftArm 29.764165 -11.597305 -74.412865
LeftForeArm 40.886780 0.000000 11.844172
LeftHand -21.621794 -0.000000 -7.377631
LeftHandThumb1 -26.253704 0.000000 33.147579
Head -0.001917 2.341634 -10.667632
412
root 4.155171 36.920158 2.460349 -43.460789 -12.945456 16.839507
RightUpLeg 32.924603 2.450470 -13.388948
RightLeg 28.443609 -0.000000 -0.000000
RightFoot -27.753937 -3.466090 9.377256
RightToeBase 8.731248 -0.000000 -0.000000
LeftUpLeg -80.954768 -7.630406 -24.063106
LeftLeg 126.601911 -0.000000 -0.000000
LeftFoot 11.945937 3.845061 -32.117480
LeftToeBase 4.658522 -0.000000 -0.000000
Spine 47.598894 17.762890 4.900275
RightShoulder 11.031395 -6.792721 -28.244999
RightArm 43.166373 16.179982 40.990205
RightForeArm -3.351963 -0.000000 63.281046
RightHand -0.769720 -0.000000 -6.247597
RightHandThumb1 -24.326973 -0.000000 -32.862282
LeftShoulder -29.002705 34.848649 -17.429519
LeftArm 29.232247 -11.892393 -74.968565
LeftForeArm 40.996694 -0.000000 11.497248
LeftHand -22.021320 -0.000000 -7.315789
LeftHandThumb1 -26.253704 0.000000 33.147579
Head -0.093062 2.360570 -10.578370
413
root 4.135772 36.917391 2.454328 -43.421359 -13.254382 16.721534
RightUpLeg 32.892146 2.511367 -13.111046
RightLeg 28.345315 -0.000000 -0.000000
RightFoot -27.691442 -3.475138 9.305300
RightToeBase 8.747370 -0.000000 -0.000000
LeftUpLeg -80.915468 -7.664890 -24.021811
LeftLeg 126.502869 -0.000000 -0.000000
LeftFoot 11.622567 4.067862 -31.845342
LeftToeBase 4.690210 -0.000000 -0.000000
Spine 47.619327 17.893408 5.063834
RightShoulder 11.075780 -6.816060 -28.206498
RightArm 43.199190 16.190487 40.759679
RightForeArm -3.177294 -0.000000 63.174486
RightHand -0.776576 -0.000000 -6.329155
RightHandThumb1 -24.326973 -0.000000 -32.862282
LeftShoulder -29.312620 35.100249 -17.485451
LeftArm 28.811020 -12.025219 -75.438118
LeftForeArm 40.900371 -0.000000 11.168266
LeftHand -22.357258 -0.000000 -7.313658
LeftHandThumb1 -26.253704 0.000000 33.147579
Head -0.167278 2.416218 -10.454420
414
root 4.116258 36.916129 2.448247 -43.364301 -13.509708 16.652167
RightUpLeg 32.840628 2.586085 -12.884947
RightLeg 28.244506 -0.000000 -0.000000
RightFoot -27.619589 -3.519801 9.174517
RightToeBase 8.657969 -0.000000 -0.000000
LeftUpLeg -80.881167 -7.647856 -24.051320
LeftLeg 126.390314 -0.000000 -0.000000
LeftFoot 11.245755 4.263626 -31.567940
LeftToeBase 4.540821 -0.000000 -0.000000
Spine 47.600139 18.059000 5.130248
RightShoulder 11.086270 -6.852794 -28.127282
RightArm 43.291910 16.211002 40.656723
RightForeArm -3.072515 -0.000000 63.049683
RightHand -0.708913 -0.000000 -6.331599
RightHandThumb1 -24.326973 -0.000000 -32.862282
LeftShoulder -29.607206 35.395445 -17.527780
LeftArm 28.460664 -12.085122 -75.872191
LeftForeArm 40.867406 -0.000000 10.874816
LeftHand -22.592821 -0.000000 -7.331418
LeftHandThumb1 -26.253704 0.000000 33.147579
Head -0.228667 2.465279 -10.252846
415
root 4.104176 36.913380 2.441013 -43.287334 -13.823007 16.559386
RightUpLeg 32.740534 2.724852 -12.572418
RightLeg 28.181816 -0.000000 -0.000000
RightFoot -27.559957 -3.599993 9.105651
RightToeBase 8.621243 -0.000000 -0.000000
LeftUpLeg -80.877985 -7.616775 -24.054203
LeftLeg 126.273240 -0.000000 -0.000000
LeftFoot 10.808668 4.528614 -31.387511
LeftToeBase 4.619504 -0.000000 -0.000000
Spine 47.573994 18.208613 5.296413
RightShoulder 11.084029 -6.928845 -28.119645
RightArm 43.392713 16.230365 40.561240
RightForeArm -2.935638 -0.000000 62.955615
RightHand -0.673395 -0.000000 -6.436655
RightHandThumb1 -24.326973 -0.000000 -32.862282
LeftShoulder -29.808619 35.610512 -17.564471
LeftArm 27.987028 -12.010611 -76.215378
LeftForeArm 40.715702 0.000000 10.661634
LeftHand -22.709991 -0.000000 -7.461787
LeftHandThumb1 -26.253704 0.000000 33.147579
Head -0.275384 2.477033 -10.171751
416
root 4.082515 36.910896 2.428689 -43.194359 -14.040766 16.470280
RightUpLeg 32.666779 2.852998 -12.237107
RightLeg 28.092853 -0.000000 -0.000000
RightFoot -27.524782 -3.818999 8.998428
RightToeBase 8.559052 -0.000000 -0.000000
LeftUpLeg -80.855636 -7.584876 -24.086512
LeftLeg 126.146776 -0.000000 -0.000000
LeftFoot 10.370258 4.724805 -31.227734
LeftToeBase 4.908956 -0.000000 -0.000000
Spine 47.531475 18.349038 5.321498
RightShoulder 11.094941 -6.976375 -28.031401
RightArm 43.464429 16.257742 40.480195
RightForeArm -2.825839 -0.000000 62.902916
RightHand -0.590285 -0.000000 -6.463379
RightHandThumb1 -24.326973 -0.000000 -32.862282
LeftShoulder -30.060101 35.898653 -17.607707
LeftArm 27.699981 -11.883277 -76.548470
LeftForeArm 40.634770 0.000000 10.458235
LeftHand -22.753452 -0.000000 -7.626864
LeftHandThumb1 -26.253704 0.000000 33.147579
Head -0.359121 2.483401 -9.970583
417
root 4.063419 36.908307 2.414496 -43.079130 -14.211622 16.410093
RightUpLeg 32.565230 3.005609 -11.915017
RightLeg 28.019040 -0.000000 -0.000000
RightFoot -27.473026 -4.105638 8.920460
RightToeBase 8.441606 -0.000000 -0.000000
LeftUpLeg -80.847022 -7.555720 -24.168879
LeftLeg 125.997064 -0.000000 -0.000000
LeftFoot 9.932560 4.978666 -31.063151
LeftToeBase 4.904672 -0.000000 -0.000000
Spine 47.454083 18.488869 5.271599
RightShoulder 11.076357 -7.016701 -27.922904
RightArm 43.584864 16.272668 40.484730
RightForeArm -2.704711 -0.000000 62.846743
RightHand -0.517597 -0.000000 -6.502158
RightHandThumb1 -24.326973 -0.000000 -32.862282
LeftShoulder -30.273193 36.131744 -17.599455
LeftArm 27.394245 -11.654185 -76.833814
LeftForeArm 40.577502 -0.000000 10.256938
LeftHand -22.542375 0.000000 -7.728108
LeftHandThumb1 -26.253704 0.000000 33.147579
Head -0.435809 2.523365 -9.746069
